<?xml version="1.0" encoding="UTF-8"?>
 <svg xmlns="http://www.w3.org/2000/svg" width="113" height="60" viewBox="0 0 113 60" fill="none">
    <g clip-path="url(#clip0_35272_467239)">
        <path d="M44.9918 22.0092H50.5738V26.2524H44.9918V33.8072C44.9918 37.8469 48.3512 38.0504 51.5872 36.8781L52.1124 41.1604C45.3955 43.0198 39.4469 41.9277 39.4469 33.9286V26.2524H36.0679V22.0092H39.8526V15.9497H44.9918V22.0092Z" fill="#F9FAFB"></path>
        <path d="M72.7727 21.9641V35.5804C72.7727 37.3986 72.8531 38.0445 74.5936 37.9231L74.6347 41.4383C71.8829 42.0842 67.5141 42.3679 67.5141 38.6101C66.4223 40.8726 63.7117 41.7221 61.2832 41.7221C55.658 41.7221 54.041 37.9642 54.041 33.1163V21.9641H59.7466V33.1163C59.6251 35.8642 61.1225 37.2773 63.106 37.2773C65.3718 37.3184 67.1123 35.6195 67.1123 32.9949V21.9641H72.7767H72.7727Z" fill="#F9FAFB"></path>
        <path d="M92.4925 22.567C91.3753 21.786 89.9073 21.375 88.4726 21.4142C86.0853 21.4142 83.8195 22.5043 83.0101 24.7277C82.6867 21.2537 78.5197 21.2537 75.6855 21.8996V25.3736C77.4652 25.0898 77.6279 26.1408 77.6279 27.7575V41.4951H83.1708V30.9497C83.1708 27.9591 85.2739 26.3444 87.7435 26.3444C88.4491 26.3209 89.141 26.4187 89.8191 26.6399C90.4463 25.0154 91.3714 23.663 92.4925 22.5689V22.567Z" fill="#F9FAFB"></path>
        <path d="M32.9964 21.9641V35.5804C32.9964 37.3986 33.0767 38.0445 34.8172 37.9231L34.8584 41.4383C32.1065 42.0842 27.7377 42.3679 27.7377 38.6101C26.646 40.8726 23.9353 41.7221 21.5068 41.7221C15.8816 41.7221 14.2646 37.9642 14.2646 33.1163V21.9641H19.9702V33.1163C19.8487 35.8642 21.3461 37.2773 23.3296 37.2773C25.5954 37.3184 27.3359 35.6195 27.3359 32.9949V21.9641H33.0003H32.9964Z" fill="#F9FAFB"></path>
        <path d="M1.71304 28.1411H0V23.3518H1.46804V23.3342C3.5966 23.2011 3.90628 20.7449 3.90628 18.9286V18.7974C3.90628 12.3308 7.8106 12.1997 12.7753 12.1997V16.6269C10.9564 16.5819 9.71572 17.0262 9.71572 19.0186V20.1851C9.71572 22.6649 8.60636 24.8354 6.34452 25.677C8.82784 26.5186 9.71572 28.7322 9.71572 31.3451V41.364H3.9494L3.90628 31.8755C3.90628 30.3508 3.45744 28.3173 1.71304 28.1411Z" fill="#EF4444"></path>
        <path d="M105.385 37.2753C104.531 37.3672 103.606 37.3555 102.796 37.3164C100.086 37.1148 97.8199 35.9424 97.618 32.9127H110.848C112.345 26.2856 109.311 21.5178 102.189 21.5178C97.0104 21.5178 92.0732 24.71 91.9517 31.4976C91.9517 38.0836 96.5635 42.0841 103.12 41.9628C105.411 41.9628 108.908 41.176 112.794 39.8607L111.283 35.7389C109.935 36.3201 108.018 36.9915 105.385 37.2772V37.2753ZM102.189 25.8413C104.292 25.8413 106.356 26.7299 106.234 29.2762H97.6572C98.1021 27.0136 100.044 25.8413 102.189 25.8413Z" fill="#F9FAFB"></path>
    </g>
    <defs>
        <clipPath id="clip0_35272_467239">
            <rect width="196" height="30" fill="#F9FAFB" transform="translate(0 12)"></rect>
        </clipPath>
    </defs>
</svg>