<svg width="258" height="39" viewBox="116 0 258 39" fill="none" xmlns="http://www.w3.org/2000/svg">
<path d="M130.731 38.563C129.283 38.563 127.852 38.4283 126.438 38.1589C125.057 37.9232 123.71 37.5697 122.397 37.0982C121.117 36.5931 119.905 36.0207 118.76 35.3809C117.615 34.7074 116.588 33.9666 115.679 33.1584L123.003 25.1779C123.845 26.087 124.956 26.8952 126.337 27.6023C127.751 28.3095 129.199 28.663 130.681 28.663C131.354 28.663 131.96 28.5452 132.499 28.3095C133.071 28.0738 133.358 27.636 133.358 26.9962C133.358 26.6595 133.257 26.3733 133.055 26.1375C132.886 25.9018 132.566 25.6661 132.095 25.4304C131.623 25.161 130.967 24.8748 130.125 24.5717C129.317 24.2687 128.29 23.9151 127.044 23.511C125.832 23.1069 124.67 22.6355 123.559 22.0967C122.447 21.5243 121.454 20.834 120.579 20.0258C119.737 19.2177 119.063 18.258 118.558 17.1468C118.053 16.0019 117.8 14.6381 117.8 13.0554C117.8 10.833 118.255 8.94729 119.164 7.39831C120.073 5.84934 121.235 4.58659 122.649 3.61006C124.097 2.59986 125.714 1.87588 127.498 1.43813C129.283 1.00037 131.051 0.781494 132.802 0.781494C135.159 0.781494 137.55 1.23608 139.974 2.14527C142.433 3.05445 144.588 4.36771 146.44 6.08505L138.964 13.7121C138.156 12.7019 137.163 11.9442 135.984 11.4391C134.806 10.9003 133.745 10.631 132.802 10.631C131.926 10.631 131.219 10.7656 130.681 11.035C130.142 11.2708 129.872 11.6748 129.872 12.2473C129.872 12.7861 130.142 13.1901 130.681 13.4595C131.253 13.7289 132.162 14.0656 133.408 14.4697C134.688 14.8738 136.035 15.3452 137.449 15.884C138.863 16.4228 140.16 17.1299 141.338 18.0054C142.55 18.8473 143.544 19.8911 144.318 21.137C145.093 22.383 145.48 23.9319 145.48 25.784C145.48 27.9391 145.042 29.8248 144.167 31.4411C143.325 33.0237 142.197 34.3538 140.783 35.4314C139.402 36.4753 137.836 37.2498 136.085 37.7549C134.334 38.2936 132.549 38.563 130.731 38.563Z" fill="#20276D"/>
<path d="M163.736 26.0365V37.5528H151.765V1.7917H167.12C168.939 1.7917 170.723 1.99374 172.474 2.39782C174.225 2.76822 175.791 3.42485 177.172 4.36771C178.552 5.27689 179.664 6.50597 180.506 8.05494C181.347 9.57024 181.768 11.4896 181.768 13.8131C181.768 16.0355 181.347 17.9212 180.506 19.4702C179.697 21.0192 178.603 22.2819 177.222 23.2585C175.875 24.235 174.31 24.9421 172.525 25.3799C170.774 25.8176 168.972 26.0365 167.12 26.0365H163.736ZM163.736 11.1361V16.8942H166.262C167.171 16.8942 167.996 16.6753 168.737 16.2376C169.511 15.7661 169.898 14.9917 169.898 13.9141C169.898 13.3417 169.797 12.8871 169.595 12.5503C169.393 12.1799 169.107 11.8937 168.737 11.6917C168.4 11.4896 168.013 11.3549 167.575 11.2876C167.137 11.1866 166.699 11.1361 166.262 11.1361H163.736Z" fill="#20276D"/>
<path d="M248.961 37.5528H236.94V11.9442H228.151V1.7917H257.75V11.9442H248.961V37.5528Z" fill="#20276D"/>
<path fill-rule="evenodd" clip-rule="evenodd" d="M209.04 16.4878H218.476L201.8 38.1836C203.179 38.4365 204.615 38.563 206.107 38.563C208.936 38.563 211.562 38.1084 213.987 37.1992C216.411 36.2901 218.516 35.0105 220.3 33.3605C222.085 31.6768 223.483 29.6564 224.493 27.2993C225.503 24.9421 226.008 22.3325 226.008 19.4702C226.008 16.608 225.503 14.032 224.493 11.7422C223.483 9.41871 222.085 7.44882 220.3 5.8325C218.516 4.21618 216.411 2.97026 213.987 2.09476C213.384 1.87701 212.768 1.68635 212.14 1.52276L209.04 16.4878ZM208.89 0.929813C207.985 0.830934 207.058 0.781494 206.107 0.781494C203.278 0.781494 200.652 1.21925 198.227 2.09476C195.803 2.97026 193.698 4.21618 191.914 5.8325C190.163 7.44882 188.782 9.41871 187.772 11.7422C186.762 14.032 186.257 16.608 186.257 19.4702C186.257 22.3325 186.762 24.9421 187.772 27.2993C188.782 29.6564 190.163 31.6768 191.914 33.3605C193.698 35.0105 195.803 36.2901 198.227 37.1992C198.405 37.2659 198.584 37.3301 198.764 37.3919L201.867 22.313H192.431L208.89 0.929813Z" fill="#FB2E51"/>
</svg>
